<svg width="104" height="136" viewBox="0 0 104 136" fill="none" xmlns="http://www.w3.org/2000/svg">
<path d="M90.0785 124.621L103.974 114V136H77L90.0785 124.621Z" fill="#E62937"/>
<path d="M103.934 22.995C103.934 23.1685 101.221 18.831 95.4772 13.626C91.4882 9.80896 87.978 6.51243 80 2.00142H103.774C103.934 1.82792 104.093 17.6165 103.934 22.995Z" fill="white"/>
<path fill-rule="evenodd" clip-rule="evenodd" d="M42.956 134.878C34.0495 121.941 28 96.6428 28 67.5517C28 38.2906 34.1204 12.8665 43.1124 0C31.3844 3.01438 20.8779 9.19084 13.9474 18.5294C4.73689 30.9401 0 47.074 0 67.862C0 88.0294 4.47373 104.474 13.9474 116.574C21.0367 125.629 31.3678 131.73 42.956 134.878Z" fill="white"/>
</svg>
