<svg width="141" height="38" viewBox="0 0 141 38" fill="none" xmlns="http://www.w3.org/2000/svg">
    <g id="csek-logo-accent" fill="#F40201">
        <path d="M132.044 3.3978L128.291 6.47534V0.100434H135.577L132.044 3.3978Z" />
        <path d="M24.3815 33.9291L28.1347 31.0605V37.0026H20.8491L24.3815 33.9291Z" />
    </g>
    <g id="csek-logo-text" fill="#131313">
        <path d="M34.6431 31.3322C34.6431 31.2853 35.4063 32.4568 37.0224 33.8627C38.1447 34.8936 39.1323 35.784 41.3769 37.0024H34.688C34.6431 37.0493 34.5982 32.7849 34.6431 31.3322Z"/>
        <path d="M60.5354 6.48082C60.5354 6.52768 59.8027 5.35615 58.2513 3.95031C57.1739 2.91936 56.2258 2.02898 54.071 0.810589H60.4923C60.5354 0.763728 60.5785 5.02812 60.5354 6.48082Z"/>
        <path d="M78.9194 0H71.897V36.7328H78.9194V0Z"/>
        <path d="M115.652 0H108.63V36.7328H115.652V0Z"/>
        <path d="M131.572 36.8391L122.54 20.6622L126.726 14.0449L140.052 36.8391H131.572Z" />
        <path d="M28.1242 6.48082C28.1242 6.52768 27.3916 5.35615 25.8401 3.95031C24.7627 2.91936 23.8146 2.02898 21.6598 0.810589H28.0811C28.1242 0.763728 28.1673 5.02812 28.1242 6.48082Z" />
        <path fill-rule="evenodd" clip-rule="evenodd" d="M11.6541 36.6996C9.24855 33.2055 7.61463 26.3726 7.61463 18.5152C7.61463 10.6119 9.26776 3.74489 11.6965 0.269775C8.5287 1.08391 5.69083 2.75216 3.81887 5.27454C1.33116 8.6266 0.0517578 12.9843 0.0517578 18.599C0.0517578 24.0461 1.26008 28.4875 3.81887 31.7558C5.73368 34.2015 8.52414 35.8495 11.6541 36.6996Z" />
        <path fill-rule="evenodd" clip-rule="evenodd" d="M97.1815 4.59126V0.27002H91.9927C94.1466 1.08994 95.9658 2.62287 97.1815 4.59126Z" />
        <path fill-rule="evenodd" clip-rule="evenodd" d="M97.1816 32.4116V36.7327H91.9932C94.1469 35.9127 95.966 34.3798 97.1816 32.4116Z" />
        <path d="M42.3223 19.4468C28.7819 12.2534 35.2548 3.19613 40.0265 0.810303C38.0908 4.05143 37.1904 10.9388 50.2899 15.3954C63.3895 19.8519 62.8495 33.2216 55.2868 36.0576C58.6628 26.6043 55.2867 26.3342 42.3223 19.4468Z" />
        <path d="M84.0835 18.3665L87.9679 14.482V18.3665V22.2509L84.0835 18.3665Z" />
    </g>
</svg>
